<?xml version="1.0" standalone="no"?>
<!DOCTYPE svg PUBLIC "-//W3C//DTD SVG 20010904//EN"
 "http://www.w3.org/TR/2001/REC-SVG-20010904/DTD/svg10.dtd">
<svg version="1.0" xmlns="http://www.w3.org/2000/svg"
 width="590.000000pt" height="886.000000pt" viewBox="0 0 590.000000 886.000000"
 preserveAspectRatio="xMidYMid meet">

<g transform="translate(0.000000,886.000000) scale(0.100000,-0.100000)"
fill="#000000" stroke="none">
<path d="M3053 8516 c-23 -14 -89 -59 -145 -102 -487 -367 -857 -784 -1008
-1138 -61 -143 -82 -247 -82 -401 1 -148 24 -250 87 -375 l35 -70 -34 -48
c-96 -133 -215 -441 -252 -650 l-18 -103 -40 -18 c-81 -36 -134 -99 -149 -178
-4 -18 -26 -59 -51 -93 -81 -109 -112 -229 -103 -397 3 -60 12 -130 19 -158
l14 -50 -47 -50 c-64 -67 -114 -153 -146 -250 -21 -67 -27 -104 -31 -228 -4
-130 -2 -160 18 -241 l22 -93 -23 -44 c-32 -61 -33 -166 -2 -226 21 -41 22
-44 7 -85 -22 -57 -30 -228 -15 -300 29 -138 119 -254 243 -313 88 -42 156
-56 264 -56 l81 0 12 -51 c6 -29 23 -78 37 -109 l26 -58 -20 -43 c-49 -103
-38 -182 40 -277 l50 -63 -17 -44 c-22 -57 -94 -136 -211 -230 -105 -84 -145
-127 -175 -186 -27 -52 -35 -135 -19 -192 11 -42 11 -45 -18 -85 -91 -125 -80
-298 25 -417 140 -159 474 -277 943 -335 241 -30 757 -37 1010 -15 503 46 826
139 1014 293 66 54 120 126 136 181 26 96 2 217 -60 294 -29 36 -31 41 -19 75
18 57 7 163 -24 216 -30 50 -118 135 -195 187 -28 19 -52 38 -52 42 0 3 17 2
38 -4 100 -28 271 16 377 97 108 83 165 180 165 281 0 34 -5 75 -11 91 -13 35
-55 80 -91 99 -16 8 -28 23 -28 33 0 25 -37 111 -57 134 -15 16 -15 19 3 40
115 133 184 339 184 545 0 191 -45 328 -155 474 -111 148 -263 258 -505 368
-74 34 -143 69 -154 78 -30 28 -46 68 -46 119 0 40 10 65 70 168 131 228 174
407 175 725 0 284 -45 570 -128 821 l-32 97 47 46 c91 88 178 225 218 342 74
212 66 462 -21 711 -139 395 -494 831 -934 1147 -143 103 -172 112 -242 72z
m150 -151 c131 -93 228 -175 356 -300 300 -292 517 -632 588 -924 49 -198 32
-424 -42 -577 -48 -97 -170 -264 -194 -264 -5 0 -38 22 -74 50 -182 138 -478
251 -802 306 -125 22 -483 25 -595 5 -155 -26 -306 -79 -380 -131 l-30 -21
-31 68 c-43 97 -60 178 -60 301 -1 159 30 278 113 445 39 78 165 263 251 367
89 108 386 405 497 496 134 111 299 234 314 234 7 0 47 -25 89 -55z m-128
-1834 c156 -29 300 -74 435 -135 111 -50 297 -163 332 -203 23 -25 94 -234
119 -348 81 -375 86 -697 15 -957 -38 -136 -47 -157 -135 -313 l-56 -100 0
-90 c0 -79 3 -95 27 -135 40 -68 61 -83 223 -157 83 -38 191 -96 240 -128 317
-209 435 -498 340 -830 -83 -292 -223 -410 -386 -327 -110 56 -128 136 -57
269 22 43 48 86 56 96 8 9 12 17 9 17 -3 0 3 26 14 58 27 75 28 174 3 227 -28
62 -110 137 -193 178 -40 20 -80 37 -87 37 -22 0 -17 -30 21 -134 19 -52 53
-165 75 -250 l41 -155 -45 -90 c-28 -55 -53 -92 -65 -96 -11 -3 -42 -30 -69
-60 -63 -69 -101 -161 -115 -282 l-11 -91 -106 -21 c-475 -92 -1173 -82 -1541
24 -133 39 -185 62 -246 111 -82 67 -124 212 -104 359 37 260 162 512 447 895
l95 129 55 -19 c110 -38 334 -52 489 -30 171 25 400 121 522 220 56 45 91 86
81 95 -2 1 -50 -19 -108 -46 -122 -57 -343 -131 -450 -150 -92 -17 -424 -19
-440 -3 -8 8 7 17 52 33 72 26 177 86 228 131 35 31 35 31 5 17 -16 -8 -75
-29 -130 -47 -89 -30 -115 -34 -243 -38 -153 -5 -234 8 -333 50 -46 19 -47 20
-54 76 -8 76 -47 153 -99 199 -24 21 -53 58 -65 82 -30 58 -100 124 -165 156
-58 28 -133 36 -217 22 l-47 -8 -17 65 c-35 130 -7 352 54 427 l17 22 33 -51
c41 -64 101 -119 157 -144 34 -14 44 -24 44 -42 0 -31 44 -129 76 -172 31 -39
152 -133 211 -163 59 -29 174 -59 273 -70 116 -13 296 1 346 27 22 11 59 25
84 32 117 32 295 176 375 305 25 39 45 77 45 83 0 20 20 13 52 -18 16 -16 31
-30 34 -30 14 0 1 82 -19 111 -42 64 -155 100 -203 65 -19 -14 -19 -15 1 -21
62 -20 67 -25 60 -53 -19 -79 -153 -236 -269 -316 -57 -39 -187 -88 -296 -112
-78 -16 -219 -18 -292 -3 -90 18 -212 83 -276 147 -58 56 -131 180 -118 200 3
5 27 17 53 27 142 54 283 217 283 328 0 49 -30 108 -72 141 l-33 26 30 0 c96
0 282 -69 418 -154 41 -25 85 -46 98 -45 15 0 19 3 9 6 -8 4 -43 30 -79 59
-64 54 -184 121 -253 143 l-36 12 20 67 c28 95 29 241 1 302 -44 98 -106 110
-187 39 -72 -64 -136 -209 -136 -311 l0 -38 -80 0 c-49 0 -80 4 -80 10 0 78
95 381 160 510 124 245 227 315 550 374 14 2 131 3 260 1 186 -2 258 -7 345
-24z m-917 -713 c4 -41 -12 -78 -32 -78 -16 0 -26 22 -26 56 0 68 53 87 58 22z
m-291 -284 c27 -17 29 -27 8 -48 -52 -51 -235 -41 -235 13 0 40 62 63 150 55
30 -3 65 -11 77 -20z m-221 -839 c32 -9 66 -30 95 -57 l44 -43 -80 -5 c-120
-9 -212 -59 -265 -146 -34 -55 -20 -56 50 -3 80 60 133 79 221 79 54 0 77 -5
120 -28 65 -33 119 -106 119 -158 l0 -34 -52 26 c-93 47 -215 42 -272 -11 -37
-34 -25 -47 26 -29 59 20 151 18 197 -5 51 -26 98 -82 111 -131 19 -70 -17
-152 -80 -185 -64 -33 -83 0 -30 50 17 16 30 37 30 47 0 17 -2 17 -37 -2 -21
-11 -50 -20 -64 -20 l-27 0 -4 -97 c-6 -148 -47 -207 -160 -232 -135 -31 -294
65 -349 209 -99 259 -24 606 157 731 84 57 160 71 250 44z m526 -603 c38 -9
68 -19 68 -22 0 -3 -47 -69 -104 -145 -58 -77 -133 -186 -168 -243 -83 -136
-76 -129 -129 -135 l-46 -6 18 52 c21 61 23 87 8 136 -15 52 18 124 63 140 88
31 160 118 174 209 6 39 9 43 28 37 11 -3 51 -14 88 -23z m-811 -435 c107 -53
233 -54 326 -2 l46 25 -6 -35 c-8 -51 -40 -90 -95 -117 -40 -19 -62 -23 -147
-23 -83 0 -109 4 -152 24 -63 28 -118 85 -132 138 -13 47 -13 55 -2 86 l10 25
48 -47 c27 -25 73 -58 104 -74z m-79 -205 c96 -46 255 -53 357 -18 49 18 61
14 61 -19 0 -59 26 -72 53 -26 16 28 52 49 63 38 3 -3 -13 -48 -35 -101 -43
-100 -66 -188 -77 -300 -8 -79 -12 -81 -137 -74 -222 12 -367 164 -367 388 0
67 16 144 28 138 4 -2 28 -14 54 -26z m2895 -94 c-2 -13 -4 -5 -4 17 -1 22 1
32 4 23 2 -10 2 -28 0 -40z m-54 -594 c90 -77 224 -100 319 -57 l47 22 21 -34
c12 -19 26 -60 32 -92 9 -50 8 -70 -11 -142 -11 -47 -19 -87 -16 -89 9 -9 66
51 86 91 22 42 25 43 51 20 24 -22 24 -95 -2 -150 -28 -63 -110 -139 -188
-176 -62 -30 -75 -32 -172 -32 -101 0 -108 1 -168 34 -70 38 -132 101 -168
173 -80 158 -54 396 57 523 l31 35 25 -50 c13 -27 39 -62 56 -76z m-2133 -291
c84 -38 284 -90 416 -107 467 -60 1043 -42 1349 43 38 11 70 19 70 18 1 -1 9
-29 19 -62 10 -33 21 -65 23 -71 9 -25 -199 -78 -427 -109 -157 -21 -588 -30
-767 -16 -423 34 -773 141 -826 254 -19 40 -22 80 -7 108 11 19 12 19 53 -7
23 -14 67 -37 97 -51z m189 -337 c460 -131 1199 -125 1632 14 70 22 131 40
135 40 5 0 26 -37 47 -81 42 -89 98 -151 244 -271 97 -80 117 -112 110 -177
-4 -39 -12 -52 -51 -87 -205 -186 -943 -298 -1676 -254 -588 35 -1066 186
-1096 346 -9 49 31 111 123 186 185 153 263 241 285 324 l11 40 57 -23 c31
-12 111 -38 179 -57z m-524 -746 c191 -89 489 -160 804 -192 169 -17 837 -17
991 0 399 45 702 126 861 232 64 42 67 41 94 -23 17 -41 20 -123 6 -160 -28
-72 -152 -164 -306 -225 -323 -128 -902 -187 -1482 -152 -399 24 -774 106
-975 212 -82 43 -173 132 -187 184 -15 55 -13 83 10 133 32 73 36 74 83 45 22
-14 68 -38 101 -54z"/>
<path d="M2860 7913 c-125 -127 -181 -197 -262 -326 -137 -218 -218 -477 -218
-699 0 -96 11 -118 59 -118 48 0 59 24 71 163 31 342 163 639 425 957 70 85
89 116 80 130 -15 24 -46 2 -155 -107z"/>
<path d="M2838 6370 c-41 -22 -63 -53 -54 -77 5 -12 19 -13 80 -8 88 8 130 -3
199 -52 39 -27 51 -32 63 -22 38 32 -5 103 -89 146 -69 35 -150 40 -199 13z"/>
<path d="M2204 6351 c-71 -18 -134 -73 -134 -118 0 -30 11 -29 68 5 41 24 57
27 132 27 83 0 85 1 85 24 0 46 -81 79 -151 62z"/>
<path d="M2800 6021 c-76 -51 -131 -158 -150 -294 -37 -260 159 -365 297 -159
57 84 68 127 68 257 0 95 -3 116 -23 152 -40 77 -117 94 -192 44z m104 -187
c17 -44 -2 -104 -33 -104 -31 0 -41 48 -19 95 13 28 43 33 52 9z"/>
<path d="M2898 5413 c7 -3 16 -2 19 1 4 3 -2 6 -13 5 -11 0 -14 -3 -6 -6z"/>
<path d="M2828 5393 c7 -3 16 -2 19 1 4 3 -2 6 -13 5 -11 0 -14 -3 -6 -6z"/>
<path d="M3171 5396 c2 -2 15 -9 29 -15 24 -11 24 -11 6 3 -16 13 -49 24 -35
12z"/>
<path d="M2778 5383 c7 -3 16 -2 19 1 4 3 -2 6 -13 5 -11 0 -14 -3 -6 -6z"/>
<path d="M2643 5373 c20 -2 54 -2 75 0 20 2 3 4 -38 4 -41 0 -58 -2 -37 -4z"/>
<path d="M3310 5296 c0 -2 8 -10 18 -17 15 -13 16 -12 3 4 -13 16 -21 21 -21
13z"/>
<path d="M3392 5060 c0 -19 2 -27 5 -17 2 9 2 25 0 35 -3 9 -5 1 -5 -18z"/>
<path d="M3335 4809 c-4 -6 -5 -12 -2 -15 2 -3 7 2 10 11 7 17 1 20 -8 4z"/>
<path d="M3229 4633 c-13 -16 -12 -17 4 -4 9 7 17 15 17 17 0 8 -8 3 -21 -13z"/>
<path d="M3064 4458 l-19 -23 23 19 c21 18 27 26 19 26 -2 0 -12 -10 -23 -22z"/>
</g>
</svg>
